<svg width="32" height="28" viewBox="0 0 32 28" fill="none" xmlns="http://www.w3.org/2000/svg">
<path d="M16 0C24.8365 0 32 6.26801 32 14C32 21.7319 24.8365 28 16 28C7.16344 28 0 21.7319 0 14C0 6.26801 7.16344 0 16 0ZM16 7C15.3925 7 14.8904 7.39501 14.8109 7.90752L14.8 8.05V12.95H9.2C8.53726 12.95 8 13.4201 8 14C8 14.5316 8.45144 14.9709 9.03717 15.0405L9.2 15.05H14.8V19.95C14.8 20.5299 15.3373 21 16 21C16.6075 21 17.1096 20.6049 17.1891 20.0925L17.2 19.95V15.05H22.8C23.4627 15.05 24 14.5799 24 14C24 13.4684 23.5485 13.0291 22.9629 12.9595L22.8 12.95H17.2V8.05C17.2 7.47011 16.6627 7 16 7Z" fill="#148BA0"/>
</svg>
