<svg width="27" height="35" viewBox="0 0 27 35" fill="none" xmlns="http://www.w3.org/2000/svg">
<path d="M13.5154 0C14.5738 0.0151847 15.6281 0.16739 16.6612 0.454176C17.1121 0.579368 17.4494 1.04733 17.5006 1.61891L17.746 4.35941C17.8572 5.61771 18.7107 6.57076 19.7282 6.57208C20.0017 6.57262 20.2723 6.50172 20.525 6.36253L22.5447 5.2582C22.9648 5.02851 23.4557 5.15374 23.7692 5.57061C25.2288 7.51091 26.3158 9.83799 26.9485 12.3767C27.0849 12.9242 26.9279 13.5191 26.5573 13.8591L24.767 15.5016C24.2563 15.9687 23.9547 16.7103 23.9547 17.4991C23.9547 18.2878 24.2563 19.0295 24.7682 19.4976L26.5599 21.1406C26.9306 21.4805 27.0878 22.0755 26.9514 22.6232C26.3189 25.1615 25.2325 27.4883 23.7738 29.429C23.4606 29.8457 22.9701 29.9714 22.5501 29.7422L20.5222 28.6364C19.9419 28.3203 19.2757 28.3666 18.7273 28.7611C18.179 29.1554 17.8142 29.8509 17.7445 30.6344L17.5007 33.3746C17.4504 33.9397 17.1204 34.4045 16.676 34.5361C14.5874 35.1546 12.4112 35.1546 10.3225 34.5361C9.87821 34.4045 9.54819 33.9397 9.4979 33.3746L9.25446 30.6385C9.18295 29.8565 8.8175 29.1631 8.26965 28.7701C7.72181 28.377 7.05659 28.3309 6.47835 28.6451L4.44996 29.7512C4.02983 29.9804 3.53927 29.8547 3.22599 29.4376C1.76643 27.4948 0.679974 25.1651 0.0483838 22.6241C-0.0876563 22.0768 0.0695239 21.4822 0.440108 21.1424L2.23301 19.4983C2.74369 19.0313 3.04529 18.2896 3.04529 17.5009C3.04529 16.7121 2.74369 15.9704 2.23234 15.5029L0.440555 13.8616C0.0694373 13.5216 -0.087887 12.9263 0.0486289 12.3785C0.681315 9.83978 1.76834 7.51271 3.22793 5.57241C3.54152 5.15553 4.03231 5.0303 4.45237 5.25999L6.47174 6.36413C7.05279 6.68154 7.72079 6.63359 8.2716 6.23305C8.82002 5.8371 9.18515 5.14092 9.25563 4.35731L9.50087 1.61891C9.5521 1.04704 9.88967 0.578919 10.3409 0.453996C11.3753 0.167677 12.4307 0.0155257 13.5154 0ZM13.4974 12.1153C11.1081 12.1153 9.17132 14.5261 9.17132 17.5C9.17132 20.4738 11.1081 22.8847 13.4974 22.8847C15.8865 22.8847 17.8234 20.4738 17.8234 17.5C17.8234 14.5261 15.8865 12.1153 13.4974 12.1153Z" fill="black"/>
</svg>
