<svg width="32" height="33" viewBox="0 0 32 33" fill="none" xmlns="http://www.w3.org/2000/svg">
<path d="M25.1901 16.5911L14.8885 25.9648C14.2878 26.5114 13.8617 27.1962 13.6556 27.946L12.857 30.8534C12.5095 32.1177 13.7682 33.2629 15.1577 32.9469L18.3529 32.22C19.1769 32.0325 19.9294 31.6449 20.5301 31.0983L30.8317 21.7246C32.3894 20.3069 32.3894 18.0086 30.8317 16.5911C29.2739 15.1734 26.7479 15.1734 25.1901 16.5911ZM6.39926 0.970488C6.39926 0.434507 5.92175 0 5.33272 0C4.74369 0 4.26618 0.434507 4.26618 0.970488V1.94098H3.19963C1.43252 1.94098 0 3.24448 0 4.85244V28.1442C0 29.7521 1.43252 31.0556 3.19963 31.0556H10.6715C10.6871 30.8342 10.7251 30.6094 10.7874 30.3825L11.5861 27.4753C11.8859 26.3841 12.5059 25.3876 13.38 24.5924L23.6815 15.2185C24.2496 14.7017 24.9012 14.3077 25.5971 14.0364V4.85244C25.5971 3.24448 24.1645 1.94098 22.3974 1.94098H21.3309V0.970488C21.3309 0.434507 20.8533 0 20.2643 0C19.6754 0 19.1978 0.434507 19.1978 0.970488V1.94098H13.8651V0.970488C13.8651 0.434507 13.3875 0 12.7985 0C12.2095 0 11.732 0.434507 11.732 0.970488V1.94098H6.39926V0.970488ZM7.46581 9.70488H18.1312C18.7202 9.70488 19.1978 10.1394 19.1978 10.6754C19.1978 11.2114 18.7202 11.6459 18.1312 11.6459H7.46581C6.87678 11.6459 6.39926 11.2114 6.39926 10.6754C6.39926 10.1394 6.87678 9.70488 7.46581 9.70488ZM19.1978 16.4983C19.1978 17.0342 18.7202 17.4688 18.1312 17.4688H7.46581C6.87678 17.4688 6.39926 17.0342 6.39926 16.4983C6.39926 15.9624 6.87678 15.5278 7.46581 15.5278H18.1312C18.7202 15.5278 19.1978 15.9624 19.1978 16.4983ZM7.46581 21.3507H11.732C12.321 21.3507 12.7985 21.7853 12.7985 22.3212C12.7985 22.8571 12.321 23.2917 11.732 23.2917H7.46581C6.87678 23.2917 6.39926 22.8571 6.39926 22.3212C6.39926 21.7853 6.87678 21.3507 7.46581 21.3507Z" fill="#272532"/>
</svg>
