<svg width="27" height="37" viewBox="0 0 27 37" fill="none" xmlns="http://www.w3.org/2000/svg">
<path d="M13.5023 1.69288V15.5616L13.503 16.7012L23.5507 16.6989L21.2251 12.8091C20.8656 12.2082 20.8329 11.2679 21.1272 10.6054L21.2253 10.4156C21.5849 9.81487 22.1474 9.7604 22.5438 10.2521L22.6574 10.416L26.7035 17.1805C27.0626 17.781 27.0956 18.7202 26.802 19.3827L26.7041 19.5725L22.658 26.35C22.2631 27.0119 21.6219 27.013 21.226 26.353C20.866 25.7527 20.8327 24.8126 21.1264 24.1494L21.2244 23.9594L23.5372 20.0839L13.503 20.0861L13.5023 35.307C13.5023 36.3595 12.9336 37.1568 12.3135 36.9738L0.836534 33.5859C0.352693 33.443 0 32.7403 0 31.9192V4.84273C0 4.01385 0.359174 3.30694 0.848578 3.17263L12.3256 0.0227749C12.9421 -0.146426 13.5023 0.648671 13.5023 1.69288ZM8.77939 17.8182C8.03208 17.8182 7.42626 18.8308 7.42626 20.0798C7.42626 21.3288 8.03208 22.3412 8.77939 22.3412C9.5267 22.3412 10.1325 21.3288 10.1325 20.0798C10.1325 18.8308 9.5267 17.8182 8.77939 17.8182ZM14.8525 33.6175L15.8857 33.6179L16.0232 33.6024C16.518 33.49 16.8992 32.7805 16.8984 31.9225L16.8887 22.3315H14.8525V33.6175ZM14.8552 14.4334L14.8525 11.5569V3.15024L15.8588 3.15027C16.3708 3.15027 16.7943 3.78555 16.8621 4.61055L16.8715 4.83993L16.8806 14.4334H14.8552Z" fill="black"/>
</svg>
