<svg width="23" height="22" viewBox="0 0 23 22" fill="none" xmlns="http://www.w3.org/2000/svg">
<path d="M12.4035 0.339136C11.9045 -0.113045 11.0955 -0.113045 10.5965 0.339136L3.88814 6.41808C3.38914 6.87028 3.38914 7.60341 3.88814 8.0556C4.38715 8.50778 5.19619 8.50778 5.6952 8.0556L10.2222 3.9533V15.0526C10.2222 15.6921 10.7943 16.2105 11.5 16.2105C12.2057 16.2105 12.7778 15.6921 12.7778 15.0526V3.9533L17.3048 8.0556C17.8038 8.50778 18.6129 8.50778 19.1119 8.0556C19.6108 7.60341 19.6108 6.87028 19.1119 6.41808L12.4035 0.339136ZM1.27778 10.4211C1.98347 10.4211 2.55556 10.9394 2.55556 11.5789V17.9474C2.55556 18.9066 3.41367 19.6842 4.47222 19.6842H18.5278C19.5863 19.6842 20.4444 18.9066 20.4444 17.9474V11.5789C20.4444 10.9394 21.0165 10.4211 21.7222 10.4211C22.4279 10.4211 23 10.9394 23 11.5789V17.9474C23 20.1856 20.9977 22 18.5278 22H4.47222C2.00228 22 0 20.1856 0 17.9474V11.5789C0 10.9394 0.572087 10.4211 1.27778 10.4211Z" fill="black"/>
</svg>
