<svg width="22" height="25" viewBox="0 0 22 25" fill="none" xmlns="http://www.w3.org/2000/svg">
<path d="M3.37787 1.72388C5.37085 0.642994 8.06813 0 11 0C13.9319 0 16.6292 0.642994 18.6221 1.72388C20.6042 2.79888 22 4.38006 22 6.24995C22 8.11984 20.6042 9.70107 18.6221 10.7761C16.6292 11.8569 13.9319 12.4999 11 12.4999C8.06813 12.4999 5.37085 11.8569 3.37787 10.7761C1.39577 9.70107 0 8.11984 0 6.24995C0 4.38006 1.39577 2.79888 3.37787 1.72388ZM21.2769 10.2457C20.6922 10.7862 20.0097 11.2583 19.2784 11.655C17.061 12.8576 14.1284 13.5418 11 13.5418C7.8716 13.5418 4.93901 12.8576 2.72169 11.655C1.99025 11.2583 1.30783 10.7862 0.723128 10.2457C0.26312 10.931 0 11.6884 0 12.5003C0 14.3702 1.39577 15.9514 3.37787 17.0264C5.37085 18.1072 8.06813 18.7503 11 18.7503C13.9319 18.7503 16.6292 18.1072 18.6221 17.0264C20.6042 15.9514 22 14.3702 22 12.5003C22 11.6884 21.7369 10.9311 21.2769 10.2457ZM21.2769 16.4956C20.6922 17.0359 20.0097 17.5081 19.2784 17.9047C17.061 19.1073 14.1284 19.7915 11 19.7915C7.8716 19.7915 4.93901 19.1073 2.72169 17.9047C1.99025 17.5081 1.30783 17.0359 0.723128 16.4956C0.26312 17.1808 0 17.9382 0 18.7501C0 20.62 1.39577 22.2012 3.37787 23.2762C5.37085 24.3571 8.06813 25 11 25C13.9319 25 16.6292 24.3571 18.6221 23.2762C20.6042 22.2012 22 20.62 22 18.7501C22 17.9382 21.7369 17.1808 21.2769 16.4956Z" fill="black"/>
</svg>
