<svg width="28" height="31" viewBox="0 0 28 31" fill="none" xmlns="http://www.w3.org/2000/svg">
<path d="M22.2492 10.0664C22.2492 7.66181 21.3537 5.35575 19.7596 3.65548C18.1656 1.9552 16.0038 1 13.7495 1C11.4952 1 9.33333 1.9552 7.73933 3.65548C6.14533 5.35575 5.24983 7.66181 5.24983 10.0664C5.24983 20.6438 1 23.6659 1 23.6659H26.499C26.499 23.6659 22.2492 20.6438 22.2492 10.0664Z" fill="black" stroke="black" stroke-width="1.5188" stroke-linecap="round" stroke-linejoin="round"/>
<path d="M16.2003 27.9155C15.9513 28.3449 15.5939 28.7013 15.1636 28.949C14.7335 29.1967 14.2459 29.3272 13.7496 29.3272C13.2532 29.3272 12.7656 29.1967 12.3355 28.949C11.9054 28.7013 11.5479 28.3449 11.2988 27.9155" fill="black"/>
<path d="M16.2003 27.9155C15.9513 28.3449 15.5939 28.7013 15.1636 28.949C14.7335 29.1967 14.2459 29.3272 13.7496 29.3272C13.2532 29.3272 12.7656 29.1967 12.3355 28.949C11.9054 28.7013 11.5479 28.3449 11.2988 27.9155" stroke="black" stroke-width="1.5188" stroke-linecap="round" stroke-linejoin="round"/>
</svg>
